<?xml version="1.0" encoding="utf-8"?>
<!-- Generator: Adobe Illustrator 28.3.0, SVG Export Plug-In . SVG Version: 6.00 Build 0)  -->
<svg version="1.1" id="Layer_1" xmlns="http://www.w3.org/2000/svg" xmlns:xlink="http://www.w3.org/1999/xlink" x="0px" y="0px"
	 viewBox="0 0 91.4 51.8" style="enable-background:new 0 0 91.4 51.8;" xml:space="preserve">
<style type="text/css">
	.st0{fill:none;stroke:#FFFFFF;stroke-width:0.75;stroke-linecap:round;stroke-linejoin:round;}
	.st1{fill:#FFFFFF;stroke:#000000;stroke-width:0.25;stroke-miterlimit:10;}
</style>
<g id="Layer_2_00000152949410876870708740000007445579296263505047_">
	<g id="Layer_1-2">
		<path class="st0" d="M23,12.2V9.9c0-0.6-0.1-1.2-0.4-1.7V8.1c-0.6-1.2-1.9-2-3.3-2l0,0l-3.8-3l-2.8,4.8L10,9
			c-0.9,0.4-1.7,1.1-2.1,2.1l0,0c-0.4,0.9-1.1,1.6-2,2L2,14.8V15c0,1.4,0.5,2.7,1.4,3.8l0,0c1,1.1,2.3,1.8,3.7,2l8,1
			c0.9,0.1,1.7,0.4,2.5,0.7l3.8,1.8c1.1,0.5,2.3,0.8,3.5,0.8l0,0c3.6,0,6.6,2.7,7,6.3l1.5,14.3l-0.9,0.5c-1.6,0.9-2.6,2.6-2.6,4.5
			H45c0-3.6,0.7-7.2,2.1-10.6l1.1-2.5c1.4-3.3,2.1-6.9,2.1-10.6v-2.5"/>
		<path class="st0" d="M22.5,8.1L22.5,8.1c2.9-1,5.6-2.4,8.1-4.1l1-0.7C33.7,1.8,36.3,1,38.9,1l0,0c2,0,3.9,0.5,5.7,1.4l0,0
			c2.8,1.4,6,2,9.1,1.6l14-1.8C68.2,2,68.8,2,69.4,2l0,0c7.3,0,13.2,5.9,13.2,13.1c0,0,0,0,0,0v5c0,4.5-0.8,9-2.2,13.3l0,0
			c-0.4,1.1-0.3,2.3,0.2,3.3l3.4,7.4l-3,6.7H68.7c0-2.3,1.9-4.2,4.2-4.2c0,0,0,0,0,0h0.7l-6.3-9.9c-0.4-0.7-0.7-1.5-0.7-2.3v-8.5"/>
		<path class="st0" d="M50.4,28.2L50.4,28.2c3.6,4,8.7,6.3,14.1,6.3h2"/>
		<path class="st0" d="M24.3,25.1L24.3,25.1c2.5,4.1,4.1,8.7,4.7,13.4l0.9,6.8h-0.1c-2.4,0-4.4,1.9-4.4,4.3c0,0,0,0,0,0v1.1h4.5"/>
		<path class="st0" d="M62,34.3L62,34.3c0,1.9,0.4,3.8,1.3,5.5l3.2,6.6l0,0c-1.5,0-2.8,1.2-2.8,2.8l0,0v1.6h4.9"/>
		<path class="st1" d="M12.2,13.5c0.7,0,1.2-0.6,1.2-1.2S12.9,11,12.2,11S11,11.6,11,12.3S11.5,13.5,12.2,13.5z"/>
		<line class="st0" x1="25.4" y1="50.8" x2="80.9" y2="50.8"/>
	</g>
</g>
</svg>
